<svg id="Layer_1" xmlns="http://www.w3.org/2000/svg" width="396" height="72" viewBox="0 0 396 72"><style>.st0{fill:#58595b}.st1{fill:#fff}.st2{fill:#9f26b5}</style><path class="st0" d="M94.9 44.7c1 1.6 4.3 6.5 13.4 6.5 1.5 0 3.1-.1 4.6-.7 3.1-1.3 3.7-3.5 3.7-5 0-2.8-1.9-3.7-3.2-4.3-1-.4-1.1-.4-5-1.3l-5.2-1.1c-2.8-.7-4.1-1-5.4-1.5-2-.8-7.3-3.4-7.3-10.6 0-8.2 6.9-13.4 17.1-13.4 9.3 0 14.3 4.6 17.4 8.7l-6.6 5c-1.5-2.1-4.3-6.4-11.2-6.4-4.3 0-8.1 2-8.1 5.3 0 3.7 4 4.4 7.9 5.1l4.5 1c5.8 1.2 14 3.6 14 12.8 0 9.9-9.2 13.9-18.3 13.9-2.4 0-5.1-.2-7.7-1-2.9-.9-7.9-2.9-11.2-8.2l6.6-4.8zM158.7 21.8h-11.9v35.8h-8.1V21.8H127v-7.3h31.7v7.3zM182.9 49.1h-16.2l-2.5 8.4h-8.6l14.5-43.2h9.2L194 57.6h-8.6l-2.5-8.5zm-2.2-7l-5.9-19.9-6 19.9h11.9zM222.2 21.8h-11.9v35.8h-8.1V21.8h-11.7v-7.3h31.7v7.3zM260.7 14.4v43.2h-8.1V38H234v19.6h-8.1V14.4h8.1v16.3h18.5V14.4h8.2zM274 21.6v10.1h20.8v7H274v11.6h24.3v7.3H266V14.4h30.7v7.2H274zM327.8 49.1h-16.2l-2.5 8.4h-8.6L315 14.3h9.2l14.7 43.2h-8.6l-2.5-8.4zm-2.1-7l-5.9-19.9-6 19.9h11.9zM341.5 14.4H357c3.7.1 8.2.1 12.8 3.4 7.2 5.1 8.3 13.8 8.3 18.6 0 7.4-2.5 14.9-8.9 18.6-4.3 2.5-8.8 2.6-13.9 2.6h-13.8V14.4zm8 7.4v28.5h3.4c6.1 0 8.3-.3 10.1-1 3.1-1.2 6.4-3.9 6.4-12.9 0-4-.6-10.6-6.6-13.5-2.3-1-3.6-1.1-9-1.2h-4.3z"/><g><path class="st2" d="M68.6 34.1l-1.8 16-9.9-5.7-9 7.6c4.2.4 8.1.3 11.1.3 13.9 0 23.3 6.3 23.3 6.3V21.4L68.6 34.1zM69.3 23.2l13.1-3.5v-6.4c-4.9 0-9.2.3-13 .9l-.1 9zM50.4 40l-8.6-7.1 16.2-6L65.4 15C47.5 18.5 42.3 27.2 31 27.2c-8.8 0-13-3.7-13-3.7 4.1 20 15.5 26.2 26.1 28.1L50.4 40z"/></g><path class="st1" d="M82.4 19.7v1.6L68.6 34.1l-1.8 16-9.9-5.7-9 7.6c-1.3-.1-2.6-.3-3.9-.5L50.4 40l-8.6-7.1 16.2-6 7.4-12c1.2-.3 2.6-.5 3.9-.7l-.1 9 13.2-3.5z"/></svg>